<?xml version="1.0" encoding="UTF-8"?>
<svg version="1.1" xmlns="http://www.w3.org/2000/svg" width="500" height="500">
<path d="M0 0 C7.81327631 5.29897643 14.21371383 11.75076653 20.81375122 18.44139099 C22.03191098 19.66515869 23.25074421 20.88825634 24.47021484 22.11071777 C27.64969856 25.30155592 30.82006165 28.50130349 33.98849487 31.70310974 C37.23459376 34.98011414 40.48939711 38.2484488 43.74343872 41.51756287 C50.10606645 47.91218845 56.45907528 54.31627747 62.80593872 60.72654724 C66.69349385 59.14862329 69.27674169 56.49928305 72.150177 53.54588318 C72.67114456 53.0187825 73.19211212 52.49168182 73.72886658 51.9486084 C74.85774384 50.80544746 75.98436747 49.66005762 77.10898209 48.51270294 C78.89604389 46.69074306 80.69020479 44.87606105 82.48657227 43.0632782 C87.59253286 37.90853801 92.68739238 32.74293564 97.7727356 27.56785583 C100.8874368 24.39921119 104.01211818 21.24068722 107.14291 18.08794403 C108.32753905 16.89099232 109.50837332 15.69027134 110.68512344 14.48557281 C121.39832594 3.52040411 130.79929473 -4.09762294 146.61843872 -4.64845276 C163.81120183 -4.35424505 173.69185639 6.31080334 185.10940552 17.75535583 C186.33358066 18.97517743 187.55817098 20.19458247 188.78314209 21.41360474 C192.09138403 24.70851734 195.39325573 28.00974273 198.69356894 31.31259489 C201.45521546 34.07531484 204.21984116 36.83504416 206.9844144 39.59483492 C213.50775564 46.10710284 220.02578129 52.62465754 226.54055786 59.14549255 C233.25063695 65.86161578 239.96985157 72.56849879 246.6935851 79.27094972 C252.47839712 85.03812667 258.25736469 90.81111481 264.03173953 96.5887419 C267.47525718 100.03406884 270.920941 103.47715484 274.37232018 106.914608 C277.6171345 110.14681695 280.85456617 113.38624553 284.08656693 116.63126564 C285.2703118 117.81736959 286.45659392 119.00094786 287.64565086 120.18172646 C297.85734792 130.32746439 305.46895049 139.71347036 306.18093872 154.78904724 C304.63438387 171.02787321 295.95874991 181.17489407 284.80886841 192.24119568 C283.59187004 193.46362415 282.37572206 194.68689973 281.16035461 195.91094971 C277.87809768 199.21133714 274.58344073 202.4990719 271.2857542 205.78403378 C267.82375693 209.23584996 264.37159092 212.69747686 260.91781616 216.15751648 C255.11800124 221.96459297 249.3098397 227.76322077 243.49685669 233.55711365 C236.79217374 240.24003088 230.10202172 246.93723532 223.41923404 253.64204192 C217.66417651 259.41529593 211.90130481 265.18066271 206.13192105 270.93960023 C202.69357632 274.37173339 199.25793275 277.80645345 195.82933807 281.24832916 C192.60438577 284.48490123 189.36968023 287.71140813 186.12743568 290.93065453 C184.94454756 292.10828819 183.76498566 293.28927469 182.58917046 294.47397041 C172.21113052 304.92309484 161.66116839 313.58322725 146.30593872 314.10154724 C122.31623439 313.32331988 105.74033962 289.82719522 90.08132935 274.13230896 C87.53275549 271.57795275 84.97959995 269.02822986 82.42517471 266.47972679 C80.44516662 264.50332077 78.46753174 262.52455396 76.49062347 260.54504776 C75.09319159 259.1466279 73.69375158 257.75021569 72.29428101 256.35383606 C71.45540344 255.51180634 70.61652588 254.66977661 69.75222778 253.80223083 C68.64189178 252.69070145 68.64189178 252.69070145 67.50912476 251.55671692 C65.80593872 249.72654724 65.80593872 249.72654724 64.80593872 247.72654724 C60.83979567 249.31811924 58.22578479 252.0779111 55.30984497 255.09080505 C54.77258286 255.63741287 54.23532074 256.18402069 53.68177795 256.74719238 C52.51695539 257.93298909 51.35432115 259.12093851 50.19363403 260.31078339 C48.34793664 262.20066512 46.49428615 264.0823884 44.63796997 265.96183777 C39.36094278 271.30588434 34.0918787 276.65755936 28.84451294 282.03074646 C25.6305519 285.32059889 22.4016389 288.59514782 19.16308594 291.86078644 C17.93921903 293.10062666 16.72089828 294.34596984 15.50860596 295.59712982 C5.62197108 305.79486545 -3.87720084 313.54738142 -18.75656128 314.03904724 C-36.82653986 313.74014534 -47.69155068 301.5306326 -59.63278198 289.59422302 C-60.84742036 288.38722291 -62.06245356 287.18062 -63.27784729 285.97438049 C-66.55100018 282.72300201 -69.81771504 279.46523228 -73.08255029 276.20550394 C-75.12693641 274.16477856 -77.17261044 272.12535306 -79.21870995 270.08634567 C-86.36861129 262.96086942 -93.51283627 255.82975285 -100.65231323 248.6938324 C-107.29003316 242.059753 -113.94079287 235.43894384 -120.59756404 228.82398617 C-126.33069024 223.12560376 -132.05410672 217.41758798 -137.77023572 211.70215595 C-141.17652444 208.29665795 -144.58662328 204.89520601 -148.00676918 201.50362015 C-151.22154181 198.31510152 -154.42401742 195.11471644 -157.61767769 191.905056 C-158.78677125 190.73415444 -159.96009394 189.56745677 -161.13806534 188.40548706 C-170.89193829 178.77602015 -177.86560462 169.13087265 -178.56906128 155.03904724 C-178.14443047 137.81496 -167.5122992 127.74265665 -156.13693237 116.34715271 C-154.91377362 115.11472174 -153.69100588 113.88190258 -152.46859741 112.64872742 C-149.16337849 109.31741579 -145.85164024 105.99266381 -142.5378108 102.66991949 C-140.46335443 100.58957863 -138.39006801 98.50807856 -136.31712723 96.42622757 C-129.81836787 89.90016407 -123.31564774 83.37808625 -116.80709398 76.86179054 C-109.31686839 69.3626036 -101.83990235 61.85052185 -94.37421358 54.32690895 C-88.58587591 48.49523878 -82.78596314 42.67524601 -76.97725356 36.86386788 C-73.51557392 33.40009997 -70.0588464 29.93172388 -66.61411667 26.45109177 C-63.37199257 23.17583251 -60.11562766 19.91541351 -56.84817505 16.66542816 C-55.65788321 15.47666763 -54.47261547 14.28284955 -53.29307938 13.08341599 C-39.09298315 -1.34188627 -19.63871093 -11.39848319 0 0 Z " fill="#00ADEE" transform="translate(186.19406127929688,95.27345275878906)"/>
<path d="M0 0 C5.23453118 4.33427748 9.95023699 9.24418326 14.74587059 14.05115891 C15.97004573 15.2709805 17.19463605 16.49038554 18.41960716 17.70940781 C21.7278491 21.00432041 25.02972081 24.3055458 28.33003402 27.60839796 C31.09168053 30.37111791 33.85630623 33.13084723 36.62087947 35.89063799 C43.14422072 42.40290591 49.66224636 48.92046061 56.17702293 55.44129562 C62.88710202 62.15741885 69.60631664 68.86430186 76.33005017 75.56675279 C82.11486219 81.33392974 87.89382976 87.10691788 93.66820461 92.88454497 C97.11172225 96.32987191 100.55740608 99.77295791 104.00878525 103.21041107 C107.25359957 106.44262002 110.49103125 109.6820486 113.723032 112.92706871 C114.90677687 114.11317266 116.09305899 115.29675093 117.28211594 116.47752953 C127.49381299 126.62326746 135.10541556 136.00927343 135.81740379 151.08485031 C134.27084894 167.32367628 125.59521498 177.47069714 114.44533348 188.53699875 C113.22833511 189.75942722 112.01218714 190.9827028 110.79681969 192.20675278 C107.51456275 195.50714021 104.21990581 198.79487497 100.92221928 202.07983685 C97.46022201 205.53165303 94.00805599 208.99327993 90.55428123 212.45331955 C84.75446631 218.26039604 78.94630477 224.05902384 73.13332176 229.85291672 C66.42863881 236.53583395 59.73848679 243.23303839 53.05569911 249.93784499 C47.30064158 255.711099 41.53776988 261.47646578 35.76838613 267.2354033 C32.33004139 270.66753646 28.89439783 274.10225652 25.46580315 277.54413223 C22.24085084 280.7807043 19.0061453 284.0072112 15.76390076 287.2264576 C14.58101263 288.40409126 13.40145074 289.58507776 12.22563553 290.76977348 C1.84759559 301.21889791 -8.70236654 309.87903032 -24.05759621 310.39735031 C-47.97068476 309.62160837 -64.57275713 286.21810865 -80.22727394 270.59290695 C-82.76343423 268.06230774 -85.30881315 265.54118559 -87.85622883 263.02192402 C-89.83524733 261.06151902 -91.80753561 259.09444773 -93.77803421 257.12548256 C-95.16592798 255.74205224 -96.56087556 254.36571003 -97.95595741 252.98952866 C-99.21416046 251.72682396 -99.21416046 251.72682396 -100.49778175 250.43861008 C-101.23578514 249.70425232 -101.97378853 248.96989456 -102.73415565 248.21328354 C-104.55759621 246.02235031 -104.55759621 246.02235031 -106.55759621 241.02235031 C-76.85759621 211.32235031 -47.15759621 181.62235031 -16.55759621 151.02235031 C-20.57303817 146.33766802 -23.0727696 143.58721249 -27.55759621 140.02235031 C-28.74451337 138.57880241 -29.93027965 137.13409224 -31.09275246 135.67078781 C-33.4352109 133.03474125 -36.16038185 130.86405754 -38.88572121 128.63563156 C-40.55759621 127.02235031 -40.55759621 127.02235031 -41.55759621 124.02235031 C-42.54759621 123.69235031 -43.53759621 123.36235031 -44.55759621 123.02235031 C-47.15568573 120.62411383 -49.43539115 118.17788402 -51.62009621 115.39735031 C-53.44523228 112.96563733 -53.44523228 112.96563733 -55.80759621 111.33485031 C-56.38509621 110.90172531 -56.96259621 110.46860031 -57.55759621 110.02235031 C-57.55759621 109.36235031 -57.55759621 108.70235031 -57.55759621 108.02235031 C-58.54759621 107.69235031 -59.53759621 107.36235031 -60.55759621 107.02235031 C-63.24509621 104.58485031 -63.24509621 104.58485031 -65.55759621 102.02235031 C-65.55759621 101.36235031 -65.55759621 100.70235031 -65.55759621 100.02235031 C-66.54759621 99.69235031 -67.53759621 99.36235031 -68.55759621 99.02235031 C-68.55759621 98.36235031 -68.55759621 97.70235031 -68.55759621 97.02235031 C-69.54759621 96.69235031 -70.53759621 96.36235031 -71.55759621 96.02235031 C-72.73112462 94.61411621 -73.90007208 93.2016406 -75.03806496 91.76453781 C-76.7410632 89.81199998 -78.58163105 88.19689705 -80.55759621 86.52235031 C-84.00315124 83.5874873 -86.72480556 80.54419815 -89.55759621 77.02235031 C-91.21111136 75.3426351 -92.88036276 73.67838277 -94.55759621 72.02235031 C-95.6690257 70.91242614 -96.77966384 69.80170916 -97.88962746 68.69031906 C-98.46003761 68.11990891 -99.03044777 67.54949875 -99.61814308 66.96180344 C-102.26462746 64.31531906 -104.91111183 61.66883469 -107.55759621 59.02235031 C-106.84326927 58.30933258 -106.12894234 57.59631485 -105.39296913 56.86169052 C-102.64790731 54.11652334 -99.91876934 51.35588681 -97.19162941 48.59290695 C-91.98415655 43.32000289 -86.7664604 38.05733947 -81.54288387 32.80038929 C-78.39275072 29.62939763 -75.24646447 26.45477552 -72.1086216 23.27161789 C-69.0578215 20.17706809 -65.99709354 17.09265407 -62.92950439 14.01474953 C-61.770298 12.84821596 -60.61458599 11.67819802 -59.4626503 10.50448418 C-42.72103303 -6.54105775 -21.39507948 -16.24024624 0 0 Z " fill="#32BEF0" transform="translate(356.55759620666504,98.9776496887207)"/>
<path d="M0 0 C7.76740228 5.27869201 14.18434538 11.66367151 20.77735901 18.29582214 C21.99334803 19.50978599 23.20978173 20.72330457 24.42663574 21.93640137 C26.95688708 24.46226037 29.48170885 26.99338858 32.00270081 29.52848816 C35.23393275 32.77692058 38.47859886 36.01154894 41.72736454 39.2424345 C44.23346858 41.73771066 46.73239961 44.24007164 49.22920036 46.7446537 C50.42351101 47.94096341 51.62004821 49.13505462 52.81884956 50.32686424 C54.48694401 51.98734876 56.14513552 53.65712916 57.80104065 55.32975769 C58.54351799 56.06312599 58.54351799 56.06312599 59.30099487 56.81130981 C61.75405015 59.31051026 63.40481717 61.17052942 63.80470276 64.72160339 C63.32001526 65.05031433 62.83532776 65.37902527 62.33595276 65.71769714 C57.39168969 69.22622228 53.54350909 73.0942491 49.60939026 77.69425964 C47.5437737 80.014725 45.23334823 81.79114161 42.80470276 83.72160339 C41.68279738 84.97680446 40.58053091 86.24968009 39.49220276 87.53410339 C36.45043447 91.10718492 33.15860805 94.10187313 29.58595276 97.13175964 C27.35735184 99.12088371 25.61401713 101.35077767 23.80470276 103.72160339 C22.14809763 105.39827122 20.47969963 107.06330877 18.80470276 108.72160339 C17.86164044 109.68482852 16.92025485 110.64969791 15.98048401 111.61613464 C15.02608186 112.58881536 14.07165464 113.56147148 13.11720276 114.53410339 C12.63187073 115.03619324 12.1465387 115.53828308 11.64649963 116.05558777 C10.4034567 117.31577612 9.10770384 118.52351383 7.80470276 119.72160339 C7.14470276 119.72160339 6.48470276 119.72160339 5.80470276 119.72160339 C5.47405823 120.54338074 5.47405823 120.54338074 5.13673401 121.38175964 C3.38600147 124.45709333 1.0152321 126.7231906 -1.50779724 129.15910339 C-1.98152771 129.62381042 -2.45525818 130.08851746 -2.94334412 130.56730652 C-4.3579611 131.95483097 -5.77661236 133.33823847 -7.19529724 134.72160339 C-8.07572693 135.64070496 -8.95615662 136.55980652 -9.86326599 137.50675964 C-12.19529724 139.72160339 -12.19529724 139.72160339 -15.19529724 140.72160339 C-15.19529724 141.38160339 -15.19529724 142.04160339 -15.19529724 142.72160339 C-16.83881181 144.08337261 -18.5105238 145.41122405 -20.19529724 146.72160339 C-21.87783844 148.37455914 -23.53916565 150.04254046 -25.19529724 151.72160339 C-26.44283661 152.96885159 -27.6914491 154.21502689 -28.94084167 155.4604187 C-29.64464462 156.16277649 -30.34844757 156.86513428 -31.07357788 157.58877563 C-31.83014175 158.34376846 -32.58670563 159.09876129 -33.36619568 159.87663269 C-41.5862063 168.08031559 -49.80369959 176.28651624 -58.01971054 184.49420452 C-62.98948677 189.45880994 -67.96020882 194.42246168 -72.93309021 199.38395691 C-77.74566275 204.18551641 -82.55563664 208.9896664 -87.36400604 213.79543495 C-89.19883254 215.6284094 -91.03454099 217.46050144 -92.8711319 219.29170799 C-95.43039283 221.84375535 -97.98655341 224.39886869 -100.54197693 226.95475769 C-101.30663773 227.71582321 -102.07129852 228.47688873 -102.85913086 229.26101685 C-103.55165451 229.95491516 -104.24417816 230.64881348 -104.95768738 231.36373901 C-105.56234203 231.96747188 -106.16699669 232.57120474 -106.78997421 233.19323254 C-108.29279047 234.6864279 -108.29279047 234.6864279 -109.19529724 236.72160339 C-113.5554085 236.27053228 -115.9580503 233.3953167 -118.89427185 230.44255066 C-119.45253159 229.89276047 -120.01079132 229.34297028 -120.58596802 228.77651978 C-122.43109689 226.95480431 -124.26479804 225.12208019 -126.09764099 223.28800964 C-127.38002751 222.01272642 -128.66271121 220.73774196 -129.94567871 219.46304321 C-132.63656816 216.78561174 -135.32143087 214.10230058 -138.00267029 211.41520691 C-141.42316943 207.9888367 -144.86147338 204.58098652 -148.30510616 201.17788792 C-150.96226932 198.54671414 -153.60773042 195.90400737 -156.25010872 193.2579937 C-157.51191403 191.99787179 -158.77766517 190.74168722 -160.04754448 189.48970222 C-170.21099322 179.45371558 -177.83059538 169.85200201 -178.57029724 155.03410339 C-178.14566643 137.81001615 -167.51353516 127.7377128 -156.13816833 116.34220886 C-154.91500958 115.10977789 -153.69224184 113.87695873 -152.46983337 112.64378357 C-149.16461445 109.31247195 -145.8528762 105.98771996 -142.53904676 102.66497564 C-140.46459039 100.58463478 -138.39130398 98.50313471 -136.31836319 96.42128372 C-129.81960383 89.89522022 -123.3168837 83.3731424 -116.80832994 76.85684669 C-109.31810435 69.35765975 -101.84113831 61.845578 -94.37544954 54.3219651 C-88.58711187 48.49029493 -82.7871991 42.67030216 -76.97848952 36.85892403 C-73.51680988 33.39515612 -70.06008236 29.92678004 -66.61535263 26.44614792 C-63.37322853 23.17088866 -60.11686362 19.91046966 -56.84941101 16.66048431 C-55.65911917 15.47172378 -54.47385143 14.2779057 -53.29431534 13.07847214 C-39.10665343 -1.3341986 -19.62090174 -11.42592162 0 0 Z " fill="#022D3D" transform="translate(186.19529724121094,95.27839660644531)"/>
<path d="M0 0 C4.49879049 2.77651571 7.73891177 6.92363972 11 11 C12.71827786 12.55680114 14.48636465 14.04082495 16.265625 15.52734375 C19.43172138 18.21567333 22.2852011 21.02991578 24.75 24.375 C26.83651146 26.80926337 28.74762568 28.36648823 31.3125 30.25 C35.42987581 33.3447596 38.23108411 36.68915224 41.265625 40.81640625 C43.50124064 43.63106649 46.05305025 45.80188979 48.80078125 48.1015625 C51.47141668 50.40694228 53.98598155 52.83748607 56.5 55.3125 C57.3559375 56.15425781 58.211875 56.99601562 59.09375 57.86328125 C61 60 61 60 61 62 C61.556875 62.226875 62.11375 62.45375 62.6875 62.6875 C66.35239281 64.7675743 68.95309356 67.7371848 71.62890625 70.96484375 C75.41150641 75.50904126 78.67690624 78.3927704 84 81 C80.10369905 85.65319046 76.06624376 90.08954238 71.78613281 94.39086914 C71.19659821 94.98697495 70.6070636 95.58308075 69.99966431 96.19725037 C68.07035127 98.1460866 66.13720687 100.09105324 64.203125 102.03515625 C63.53709007 102.7052667 62.87105515 103.37537716 62.18483734 104.06579399 C58.66199393 107.60940415 55.1359489 111.14979379 51.60742188 114.68774414 C47.98349647 118.32274226 44.37140647 121.96927001 40.76182938 125.61850834 C37.96479806 128.44178818 35.15881797 131.25604698 32.35042572 134.06802177 C31.01553944 135.40774895 29.68400488 136.75082517 28.35605621 138.09742928 C17.46060482 149.1364306 6.83320998 158.82366802 -9.5 159.375 C-33.41308856 158.59925806 -50.01516093 135.19575834 -65.66967773 119.57055664 C-68.20583803 117.03995743 -70.75121695 114.51883528 -73.29863262 111.99957371 C-75.27765113 110.03916871 -77.24993941 108.07209742 -79.220438 106.10313225 C-80.60833177 104.71970193 -82.00327935 103.34335972 -83.39836121 101.96717834 C-84.65656425 100.70447365 -84.65656425 100.70447365 -85.94018555 99.41625977 C-87.04719063 98.31472313 -87.04719063 98.31472313 -88.17655945 97.19093323 C-90.10751044 94.87082212 -90.94814476 92.80531149 -92 90 C-80.45373058 78.40704106 -68.9017662 66.81979232 -57.3429594 55.23933506 C-51.97632234 49.8623788 -46.61157661 44.48356044 -41.2512207 39.1003418 C-36.57995394 34.40916086 -31.90520002 29.72148827 -27.22619849 25.0380215 C-24.74808628 22.55729856 -22.27177384 20.07483642 -19.7996273 17.58816719 C-17.04201412 14.81448563 -14.2766228 12.04864185 -11.51049805 9.28344727 C-10.68906815 8.45482681 -9.86763824 7.62620636 -9.02131653 6.7724762 C-7.89184097 5.64712463 -7.89184097 5.64712463 -6.73954773 4.4990387 C-6.0859965 3.84364388 -5.43244528 3.18824907 -4.75908947 2.51299381 C-3 1 -3 1 0 0 Z " fill="#99DFF9" transform="translate(342,250)"/>
<path d="M0 0 C0.25599629 0.58172974 0.51199259 1.16345947 0.77574635 1.76281738 C2.12060016 4.2203829 3.59618945 5.8286661 5.58805847 7.79492188 C6.33269852 8.53508545 7.07733856 9.27524902 7.84454346 10.0378418 C8.66178894 10.8400415 9.47903442 11.64224121 10.32104492 12.46875 C11.18125748 13.32122314 12.04147003 14.17369629 12.92774963 15.05200195 C14.79619423 16.90278813 16.66630868 18.75169977 18.53926659 20.59790039 C21.49893006 23.51617546 24.44932874 26.44369648 27.39802551 29.37304688 C35.78302508 37.70048045 44.17801645 46.0177514 52.58764648 54.3203125 C57.23446977 58.90813198 61.87234854 63.50479983 66.50052911 68.11142731 C69.43126553 71.02749753 72.37275427 73.93212833 75.32254255 76.82891846 C77.5807547 79.05296827 79.8226929 81.29332121 82.06713867 83.53125 C82.89045685 84.33344971 83.71377502 85.13564941 84.56204224 85.9621582 C85.29822281 86.70232178 86.03440338 87.44248535 86.79289246 88.20507812 C87.44015887 88.84513794 88.08742529 89.48519775 88.75430584 90.14465332 C90 92 90 92 89.8405323 94.07202339 C88.48878797 97.17259603 86.11334671 99.32861758 83.75268555 101.68310547 C83.20610794 102.23975891 82.65953033 102.79641235 82.09638977 103.36993408 C80.28444475 105.2104002 78.46136581 107.03931891 76.63671875 108.8671875 C75.36630015 110.14725177 74.09610596 111.42753878 72.8261261 112.70803833 C70.1572514 115.39489013 67.48223225 118.07545231 64.8034668 120.75244141 C61.39342717 124.16217782 58.00440398 127.59198194 54.62054729 131.02767754 C51.9995472 133.68227274 49.36478013 136.32287832 46.72614479 138.95993423 C45.4723561 140.21723474 44.2233619 141.47933729 42.97955894 142.74651718 C32.96880131 152.92750342 23.39862256 160.81813247 8.4375 161.3125 C-10.87054952 160.99311873 -22.36814007 146.92568391 -34.9765625 134.21875 C-36.39672586 132.79484903 -37.81733696 131.3713945 -39.2383728 129.94836426 C-42.94825106 126.23090837 -46.65207948 122.50748286 -50.35461426 118.78271484 C-54.14548358 114.97125959 -57.942135 111.16557327 -61.73828125 107.359375 C-69.16447461 99.9118355 -76.5842796 92.45796676 -84 85 C-83.01 84.505 -83.01 84.505 -82 84 C-81.69635088 83.39193638 -81.39270176 82.78387276 -81.07985115 82.15738297 C-79.89663497 79.79349196 -78.59054269 78.34417735 -76.72238159 76.48187256 C-75.70855911 75.46392609 -75.70855911 75.46392609 -74.67425537 74.42541504 C-73.93338684 73.69173706 -73.19251831 72.95805908 -72.42919922 72.20214844 C-71.64862152 71.42127869 -70.86804382 70.64040894 -70.06381226 69.83587646 C-67.48214955 67.25560727 -64.89347442 64.68249478 -62.3046875 62.109375 C-60.51349081 60.32190835 -58.72273512 58.53399968 -56.93240356 56.7456665 C-52.70039428 52.52051369 -48.46396242 48.2998454 -44.22535431 44.08131623 C-39.39920285 39.27753114 -34.57873937 34.46805558 -29.75874305 29.65809584 C-19.84547392 19.76572333 -9.92509034 9.88051113 0 0 Z " fill="#0182B3" transform="translate(159,248)"/>
<path d="M0 0 C0.578125 1.8984375 0.578125 1.8984375 1 4 C-0.73834173 6.25984425 -2.59701393 7.39800928 -5 9 C-4.40832031 9.59167969 -3.81664063 10.18335938 -3.20703125 10.79296875 C22.86197917 36.86197917 48.93098958 62.93098958 75 89 C73.648351 92.01586857 72.14363498 94.10299124 69.80503845 96.42874146 C69.14743027 97.08765381 68.48982208 97.74656616 67.81228638 98.42544556 C66.73139236 99.49319717 66.73139236 99.49319717 65.62866211 100.58251953 C64.86919785 101.34066956 64.10973358 102.09881958 63.32725525 102.87994385 C60.81518054 105.38552585 58.29621259 107.88406237 55.77734375 110.3828125 C54.03331183 112.12057516 52.28979331 113.85885322 50.54676819 115.59762573 C45.95644071 120.17464408 41.36058136 124.74606405 36.76312256 129.31591797 C29.39894364 136.63698873 22.04147163 143.96478481 14.68719673 151.29580307 C12.11193386 153.86081036 9.5333025 156.42239589 6.95433044 158.9836731 C5.38342087 160.54775754 3.81261923 162.11195039 2.24194336 163.67626953 C1.158013 164.75009384 1.158013 164.75009384 0.05218506 165.84561157 C-0.6026033 166.49888428 -1.25739166 167.15215698 -1.93202209 167.82522583 C-2.50370149 168.39338579 -3.07538088 168.96154575 -3.66438389 169.54692268 C-5.10509242 170.98016484 -5.10509242 170.98016484 -6 173 C-10.36011126 172.54892889 -12.76275306 169.67371331 -15.69897461 166.72094727 C-16.25723434 166.17115707 -16.81549408 165.62136688 -17.39067078 165.05491638 C-19.23579965 163.23320092 -21.0695008 161.4004768 -22.90234375 159.56640625 C-24.18473027 158.29112302 -25.46741397 157.01613857 -26.75038147 155.74143982 C-29.44127092 153.06400835 -32.12613363 150.38069718 -34.80737305 147.69360352 C-38.22787219 144.26723331 -41.66617614 140.85938313 -45.10980892 137.45628452 C-47.76697208 134.82511075 -50.41243317 132.18240398 -53.05481148 129.5363903 C-54.31661679 128.27626839 -55.58236793 127.02008382 -56.85224724 125.76809883 C-67.01569598 115.73211218 -74.63529814 106.13039862 -75.375 91.3125 C-75.02621529 77.16492035 -67.99209968 67.64680572 -58.35205078 58.125 C-57.71719254 57.4898497 -57.08233429 56.8546994 -56.42823792 56.20030212 C-54.35530744 54.12875077 -52.27541261 52.06434981 -50.1953125 50 C-48.74613401 48.55455669 -47.29740018 47.10866744 -45.84909058 45.66235352 C-42.05597258 41.87683222 -38.25688484 38.09735864 -34.45648193 34.31915283 C-30.57150005 30.45471511 -26.69224995 26.58453286 -22.8125 22.71484375 C-15.21390238 15.13762606 -7.6089797 7.56679103 0 0 Z " fill="#025778" transform="translate(83,159)"/>
<path d="M0 0 C6.84533167 5.62343201 13.05274673 11.87023985 19.3203125 18.1171875 C19.90341061 18.69745823 20.48650871 19.27772896 21.08727646 19.87558365 C24.16911981 22.94251573 27.24813709 26.0122509 30.32470703 29.08447266 C33.48622006 32.24049235 36.65691398 35.38711662 39.82985115 38.53164482 C42.28514272 40.96824073 44.73363079 43.41158894 47.18035507 45.85678482 C48.34595811 47.01937983 49.51403948 48.17949602 50.68472672 49.33697128 C60.97208368 59.51640409 68.65894998 68.90091915 69.375 84.0625 C67.78727917 100.73356873 58.6983292 110.93307614 47.33984375 122.26171875 C46.10442754 123.50492278 44.86945483 124.74856766 43.63490295 125.99263 C41.06208337 128.58027919 38.48177374 131.16016428 35.89624023 133.73510742 C32.58141652 137.03826031 29.2900716 140.36378726 26.00426388 143.69577312 C23.46766188 146.26177567 20.91740929 148.81385769 18.36294746 151.36207008 C17.14260675 152.58343791 15.92698925 153.80954391 14.71623039 155.040411 C13.02909148 156.75214444 11.32408052 158.44379996 9.61303711 160.1315918 C9.1167984 160.64311798 8.62055969 161.15464417 8.10928345 161.68167114 C6.68687439 163.06156921 6.68687439 163.06156921 4 165 C-0.79971715 164.89366227 -3.707101 162.25796108 -7 159 C-8.69088222 157.02043058 -10.35830472 155.02054804 -12 153 C-13.6459651 151.31288577 -15.31237149 149.6454378 -17 148 C-18.66813445 146.33480241 -20.33450333 144.66783585 -22 143 C-23.124916 141.874916 -24.24992108 140.74992108 -25.375 139.625 C-27.79166667 137.20833333 -30.20833333 134.79166667 -32.625 132.375 C-33.19903564 131.80112549 -33.77307129 131.22725098 -34.36450195 130.63598633 C-35.84182112 129.15822611 -37.31749408 127.67882062 -38.79296875 126.19921875 C-40.28013861 124.71731321 -41.78731105 123.2552463 -43.3125 121.8125 C-45 120 -45 120 -45 118 C-45.53625 117.773125 -46.0725 117.54625 -46.625 117.3125 C-54.43263695 112.99775327 -60.2700464 105.72495678 -66.08984375 99.1328125 C-68.3061274 96.65818904 -70.62085782 94.31813853 -73 92 C-73.57878906 91.39929688 -74.15757812 90.79859375 -74.75390625 90.1796875 C-75.37136719 89.54289062 -75.98882812 88.90609375 -76.625 88.25 C-77.19476563 87.65703125 -77.76453125 87.0640625 -78.3515625 86.453125 C-80.04791115 84.7672981 -80.04791115 84.7672981 -83 84 C-82.58439127 83.58531306 -82.16878254 83.17062613 -81.74057961 82.74337292 C-71.63097119 72.65584288 -61.52412728 62.56555015 -51.42035866 52.47217083 C-46.53420013 47.59116994 -41.64710814 42.71111056 -36.7578125 37.83325195 C-32.04176714 33.12823311 -27.3283311 28.42061115 -22.61649704 23.71137428 C-20.81599035 21.91271912 -19.01460195 20.11494613 -17.21232986 18.31805992 C-14.69343144 15.8063918 -12.17765075 13.29164083 -9.66259766 10.77612305 C-8.53726875 9.65618706 -8.53726875 9.65618706 -7.38920593 8.5136261 C-6.36276222 7.48512039 -6.36276222 7.48512039 -5.31558228 6.43583679 C-4.72010401 5.84128032 -4.12462574 5.24672384 -3.51110268 4.63415051 C-1.79778627 2.86744904 -1.79778627 2.86744904 0 0 Z " fill="#66CEF4" transform="translate(423,166)"/>
<path d="M0 0 C0 3.56172735 -0.74670717 4.36534757 -2.875 7.125 C-3.40867187 7.82882813 -3.94234375 8.53265625 -4.4921875 9.2578125 C-6 11 -6 11 -8 12 C-8 13.32 -8 14.64 -8 16 C-9.44286917 18.24675342 -11.19379986 20.01317985 -13 22 C-14.65 21.67 -16.3 21.34 -18 21 C-17.34 22.32 -16.68 23.64 -16 25 C-17.62339805 26.70884005 -19.29319053 28.37446717 -21 30 C-21.66 30 -22.32 30 -23 30 C-23 30.66 -23 31.32 -23 32 C-23.66 32 -24.32 32 -25 32 C-25.2475 32.598125 -25.495 33.19625 -25.75 33.8125 C-27.22877798 36.40036146 -28.34261755 37.63334617 -31 39 C-33.75 38.1875 -33.75 38.1875 -36 37 C-31.82222235 32.01407125 -27.46872723 27.33295716 -22.8515625 22.75390625 C-22.19417084 22.09792953 -21.53677917 21.44195282 -20.85946655 20.76609802 C-18.78367138 18.69584732 -16.70440573 16.62912349 -14.625 14.5625 C-13.2067992 13.14932138 -11.78882824 11.73591206 -10.37109375 10.32226562 C-6.91671223 6.87883935 -3.4592163 3.43856901 0 0 Z " fill="#55C6EE" transform="translate(303,104)"/>
<path d="M0 0 C0.6875 1.8125 0.6875 1.8125 1 4 C-0.73834173 6.25984425 -2.59701393 7.39800928 -5 9 C-4.40832031 9.59167969 -3.81664063 10.18335938 -3.20703125 10.79296875 C7.52864583 21.52864583 18.26432292 32.26432292 29 43 C28.01 43.33 27.02 43.66 26 44 C24.29115995 42.37660195 22.62553283 40.70680947 21 39 C21 38.34 21 37.68 21 37 C20.01 37 19.02 37 18 37 C18 36.01 18 35.02 18 34 C16.515 33.505 16.515 33.505 15 33 C15 32.34 15 31.68 15 31 C14.01 30.67 13.02 30.34 12 30 C12 29.34 12 28.68 12 28 C11.34 28 10.68 28 10 28 C10 27.34 10 26.68 10 26 C9.38125 25.7525 8.7625 25.505 8.125 25.25 C5.64931313 23.79371361 5.04874998 22.62187494 4 20 C3.34 20 2.68 20 2 20 C2 19.34 2 18.68 2 18 C1.34 18 0.68 18 0 18 C0 17.34 0 16.68 0 16 C-0.99 15.67 -1.98 15.34 -3 15 C-3.66 14.01 -4.32 13.02 -5 12 C-8.08365871 11.7497843 -8.08365871 11.7497843 -11 12 C-7.49102731 7.81576108 -3.91939465 3.80411834 0 0 Z " fill="#14556E" transform="translate(83,159)"/>
<path d="M0 0 C0 3.56172735 -0.74670717 4.36534757 -2.875 7.125 C-3.40867187 7.82882813 -3.94234375 8.53265625 -4.4921875 9.2578125 C-6 11 -6 11 -8 12 C-8 13.32 -8 14.64 -8 16 C-9.44286917 18.24675342 -11.19379986 20.01317985 -13 22 C-14.65 21.67 -16.3 21.34 -18 21 C-17.43379699 17.22531329 -15.87731019 15.52448107 -13.18359375 12.890625 C-12.41982422 12.13652344 -11.65605469 11.38242188 -10.86914062 10.60546875 C-10.06669922 9.82816406 -9.26425781 9.05085938 -8.4375 8.25 C-7.63119141 7.45722656 -6.82488281 6.66445312 -5.99414062 5.84765625 C-4.00266222 3.89152954 -2.00452279 1.94274281 0 0 Z " fill="#4AC1EF" transform="translate(303,104)"/>
<path d="M0 0 C0.33 0.66 0.66 1.32 1 2 C-1.57979931 6.20411739 -4.07832134 9.03224317 -8 12 C-8.33 12.66 -8.66 13.32 -9 14 C-9.66 14 -10.32 14 -11 14 C-11 14.66 -11 15.32 -11 16 C-12.47693659 17.28001171 -13.95927004 18.55512179 -15.484375 19.77734375 C-17.11210615 21.09043615 -18.55339915 22.49050346 -20 24 C-22.59534707 26.66023074 -24.90109671 28.93406448 -28 31 C-28 28 -28 28 -25.4296875 25.08911133 C-24.25246159 23.91236127 -23.06695862 22.74385576 -21.875 21.58203125 C-21.25351074 20.96478683 -20.63202148 20.34754242 -19.99169922 19.71159363 C-18.00138167 17.73809421 -16.00089605 15.77526775 -14 13.8125 C-12.65035991 12.47790263 -11.30139264 11.14262449 -9.953125 9.80664062 C-6.64317773 6.52980425 -3.32407262 3.26250403 0 0 Z " fill="#1283AC" transform="translate(136,271)"/>
<path d="M0 0 C-0.433125 0.8353125 -0.433125 0.8353125 -0.875 1.6875 C-2.07338209 4.01604463 -2.07338209 4.01604463 -2.875 6.6875 C-4 9 -4 9 -6.125 9.8125 C-6.74375 9.874375 -7.3625 9.93625 -8 10 C-8.33 11.32 -8.66 12.64 -9 14 C-10.11375 14.2475 -11.2275 14.495 -12.375 14.75 C-16.06414789 15.56660199 -16.06414789 15.56660199 -17.125 18.0625 C-17.41375 18.701875 -17.7025 19.34125 -18 20 C-20.625 20.75 -20.625 20.75 -23 21 C-18.78708338 15.98708084 -14.42247544 11.21183489 -9.8125 6.5625 C-9.19697266 5.92634766 -8.58144531 5.29019531 -7.94726562 4.63476562 C-7.35236328 4.03470703 -6.75746094 3.43464844 -6.14453125 2.81640625 C-5.61190674 2.27443604 -5.07928223 1.73246582 -4.53051758 1.17407227 C-3 0 -3 0 0 0 Z " fill="#22667E" transform="translate(40,205)"/>
<path d="M0 0 C6.74080425 5.52650334 12.8071129 11.69449559 18.9375 17.875 C20.01343727 18.95596274 21.08960731 20.03669383 22.16601562 21.1171875 C24.78003292 23.74212641 27.39088596 26.37018628 30 29 C29.67 29.66 29.34 30.32 29 31 C28.34 30.319375 27.68 29.63875 27 28.9375 C24.75278189 26.68389774 22.40618328 24.58262454 20 22.5 C16.8625897 19.77259219 13.80670732 17.06983613 11 14 C11 13.34 11 12.68 11 12 C10.01 11.67 9.02 11.34 8 11 C6.3125 9.5625 6.3125 9.5625 5 8 C5 7.34 5 6.68 5 6 C4.34 6 3.68 6 3 6 C0 2.53846154 0 2.53846154 0 0 Z " fill="#165973" transform="translate(128,219)"/>
<path d="M0 0 C0.7734375 0.433125 0.7734375 0.433125 1.5625 0.875 C4.62356725 2.28780027 7.74944918 3.1248517 11 4 C11 5.65 11 7.3 11 9 C12.11375 9.37125 13.2275 9.7425 14.375 10.125 C17.49882462 11.45025893 17.88183584 11.75339653 19.4375 15 C20 18 20 18 20 21 C17.14852788 18.17317491 14.30029574 15.34313037 11.45507812 12.51000977 C10.48592079 11.54589335 9.51586952 10.58267471 8.54492188 9.62036133 C7.15262088 8.24013641 5.7637538 6.85645022 4.375 5.47265625 C3.53710938 4.64000244 2.69921875 3.80734863 1.8359375 2.94946289 C0 1 0 1 0 0 Z " fill="#0EAEE8" transform="translate(188,279)"/>
<path d="M0 0 C-1 3 -1 3 -3.25 5.1875 C-6.08295351 8.08483882 -7.84922699 10.90413355 -9.7890625 14.42578125 C-10.18867188 14.94527344 -10.58828125 15.46476563 -11 16 C-11.99 16 -12.98 16 -14 16 C-14.639375 16.804375 -15.27875 17.60875 -15.9375 18.4375 C-18 21 -18 21 -20.25 21.8125 C-20.8275 21.874375 -21.405 21.93625 -22 22 C-19.93575924 17.87151849 -17.39864608 15.53575718 -13.90625 12.6796875 C-11.19213891 10.28815519 -8.90808058 7.59204873 -6.578125 4.83203125 C-2.41577825 0 -2.41577825 0 0 0 Z " fill="#189CCB" transform="translate(234,175)"/>
<path d="M0 0 C2.31 0 4.62 0 7 0 C2.88380164 4.91935902 -1.40410362 9.52647956 -6 14 C-6.33 13.34 -6.66 12.68 -7 12 C-7.66 11.67 -8.32 11.34 -9 11 C-8.01 10.34 -7.02 9.68 -6 9 C-5.31731862 7.67479497 -4.6492959 6.34187818 -4 5 C-3.34 4.67 -2.68 4.34 -2 4 C-0.86649466 1.98330173 -0.86649466 1.98330173 0 0 Z " fill="#83D3F5" transform="translate(476,274)"/>
<path d="M0 0 C-0.433125 0.8353125 -0.433125 0.8353125 -0.875 1.6875 C-2.07338209 4.01604463 -2.07338209 4.01604463 -2.875 6.6875 C-4 9 -4 9 -6.125 9.8125 C-6.74375 9.874375 -7.3625 9.93625 -8 10 C-8.33 11.32 -8.66 12.64 -9 14 C-10.98 14.33 -12.96 14.66 -15 15 C-14.56096268 10.60962679 -11.61945961 8.17535669 -8.625 5.25 C-8.13 4.74339844 -7.635 4.23679688 -7.125 3.71484375 C-3.38011708 0 -3.38011708 0 0 0 Z " fill="#18617B" transform="translate(56,189)"/>
<path d="M0 0 C1.12894876 0.93274109 2.25300876 1.87140122 3.375 2.8125 C4.00148437 3.33457031 4.62796875 3.85664063 5.2734375 4.39453125 C7 6 7 6 9 9 C6.97954558 8.39816251 4.97888961 7.72693904 3 7 C2.67 6.34 2.34 5.68 2 5 C1.071875 5.309375 0.14375 5.61875 -0.8125 5.9375 C-2.875 6.625 -4.9375 7.3125 -7 8 C-7.33 8.99 -7.66 9.98 -8 11 C-9.32 10.67 -10.64 10.34 -12 10 C-8.27856704 6.08552441 -4.85967024 2.50346649 0 0 Z " fill="#0AABE6" transform="translate(250,159)"/>
<path d="M0 0 C1 3 1 3 -0.0625 5.4375 C-2.34650229 8.45827722 -4.8421761 9.93774766 -8 12 C-8.680625 12.886875 -9.36125 13.77375 -10.0625 14.6875 C-12 17 -12 17 -14.75 17.8125 C-15.4925 17.874375 -16.235 17.93625 -17 18 C-11.72898586 11.58930713 -5.90871848 5.81409488 0 0 Z " fill="#2C4B54" transform="translate(101,141)"/>
<path d="M0 0 C1.98 0 3.96 0 6 0 C1.90473413 4.89434213 -2.26357085 9.70720334 -7 14 C-7.33 14 -7.66 14 -8 14 C-8.25 11.6875 -8.25 11.6875 -8 9 C-6 7.1875 -6 7.1875 -4 6 C-3.34 6.33 -2.68 6.66 -2 7 C-2 5.68 -2 4.36 -2 3 C-1.34 3 -0.68 3 0 3 C0 2.01 0 1.02 0 0 Z " fill="#B1E4F4" transform="translate(420,331)"/>
<path d="M0 0 C0.99 0.66 1.98 1.32 3 2 C2.67 3.32 2.34 4.64 2 6 C0.68 6.33 -0.64 6.66 -2 7 C-2.33 8.32 -2.66 9.64 -3 11 C-4.98 11.33 -6.96 11.66 -9 12 C-8.45015228 8.12488273 -6.72444669 6.40423494 -3.9375 3.75 C-3.20402344 3.04359375 -2.47054687 2.3371875 -1.71484375 1.609375 C-1.14894531 1.07828125 -0.58304688 0.5471875 0 0 Z " fill="#20667E" transform="translate(66,176)"/>
<path d="M0 0 C-1.26457031 0.06058594 -2.52914063 0.12117188 -3.83203125 0.18359375 C-5.49219871 0.26800904 -7.15235437 0.35265655 -8.8125 0.4375 C-9.64587891 0.47681641 -10.47925781 0.51613281 -11.33789062 0.55664062 C-12.14033203 0.59853516 -12.94277344 0.64042969 -13.76953125 0.68359375 C-14.87711792 0.73858032 -14.87711792 0.73858032 -16.00708008 0.79467773 C-18.207495 0.94842141 -18.207495 0.94842141 -21 2 C-23.33299825 2.03954234 -25.66708189 2.04401732 -28 2 C-22.12326776 -3.87673224 -6.80328046 -4.24363039 0 0 Z " fill="#77CEEA" transform="translate(344,93)"/>
<path d="M0 0 C3.15204981 1.39347376 5.26171773 3.02485079 7.671875 5.4765625 C8.33574219 6.146875 8.99960938 6.8171875 9.68359375 7.5078125 C10.36550781 8.20648438 11.04742187 8.90515625 11.75 9.625 C12.44738281 10.33140625 13.14476563 11.0378125 13.86328125 11.765625 C15.58012488 13.50598703 17.29211832 15.25084981 19 17 C18.01 17.33 17.02 17.66 16 18 C14.29115995 16.37660195 12.62553283 14.70680947 11 13 C11 12.34 11 11.68 11 11 C10.01 11 9.02 11 8 11 C8 10.01 8 9.02 8 8 C7.01 7.67 6.02 7.34 5 7 C5 6.34 5 5.68 5 5 C4.01 4.67 3.02 4.34 2 4 C2 3.34 2 2.68 2 2 C1.34 2 0.68 2 0 2 C0 1.34 0 0.68 0 0 Z " fill="#13576F" transform="translate(93,185)"/>
<path d="M0 0 C-1.86616235 3.45240035 -3.41927381 6.20963691 -7 8 C-9.75 7.1875 -9.75 7.1875 -12 6 C-8.70729291 1.36581964 -5.87436551 -1.95812184 0 0 Z " fill="#47C0EF" transform="translate(279,135)"/>
<path d="M0 0 C0.99 0.33 1.98 0.66 3 1 C1.86280581 4.41158256 0.95657056 5.11854601 -2 7 C-2.66 7 -3.32 7 -4 7 C-4.144375 7.639375 -4.28875 8.27875 -4.4375 8.9375 C-5 11 -5 11 -6 12 C-7.66617115 12.04063832 -9.33388095 12.042721 -11 12 C-7.49102731 7.81576108 -3.91939465 3.80411834 0 0 Z " fill="#82DFFB" transform="translate(299,291)"/>
<path d="M0 0 C0.99 0 1.98 0 3 0 C1.46356148 3.68069887 -0.78150945 5.98775204 -3.625 8.75 C-4.85089844 9.94882812 -4.85089844 9.94882812 -6.1015625 11.171875 C-6.72804688 11.77515625 -7.35453125 12.3784375 -8 13 C-8.66 12.01 -9.32 11.02 -10 10 C-8.68 9.67 -7.36 9.34 -6 9 C-6.309375 8.071875 -6.309375 8.071875 -6.625 7.125 C-6.810625 6.073125 -6.810625 6.073125 -7 5 C-5.03747385 3.03747385 -3.46143579 2.19101732 -1 1 C-0.67 0.67 -0.34 0.34 0 0 Z " fill="#B1E6F5" transform="translate(382,371)"/>
<path d="M0 0 C0 4.74997995 -2.90524965 7.56210787 -6 11 C-8.5565188 13.17624809 -11.21189611 15.13182886 -14 17 C-14.66 16.67 -15.32 16.34 -16 16 C-10.72 10.72 -5.44 5.44 0 0 Z " fill="#7ADDFB" transform="translate(271,319)"/>
<path d="M0 0 C1 2 1 2 0.25 4.5625 C-1 7 -1 7 -4 8 C-5.35573748 9.31054623 -6.68612831 10.64748503 -8 12 C-9.65191491 13.35156675 -11.31522656 14.68962066 -13 16 C-13.66 15.67 -14.32 15.34 -15 15 C-10.05 10.05 -5.1 5.1 0 0 Z " fill="#7BDEFC" transform="translate(287,303)"/>
<path d="M0 0 C0.7734375 0.433125 0.7734375 0.433125 1.5625 0.875 C4.62356725 2.28780027 7.74944918 3.1248517 11 4 C11 5.65 11 7.3 11 9 C12.32 9.66 13.64 10.32 15 11 C14.67 11.99 14.34 12.98 14 14 C9.10565787 9.90473413 4.29279666 5.73642915 0 1 C0 0.67 0 0.34 0 0 Z " fill="#0EAEE8" transform="translate(172,263)"/>
<path d="M0 0 C0.33 0.66 0.66 1.32 1 2 C0.29875 2.680625 -0.4025 3.36125 -1.125 4.0625 C-3.21121407 6.13692755 -5.11880775 8.30117046 -7 10.5625 C-9.41864101 13.43228649 -11.96465016 15.76812511 -15 18 C-15.66 17.67 -16.32 17.34 -17 17 C-11.33333333 11.33333333 -5.66666667 5.66666667 0 0 Z " fill="#1AA5D8" transform="translate(211,197)"/>
<path d="M0 0 C0.33 0.66 0.66 1.32 1 2 C-0.3125 4.625 -0.3125 4.625 -2 7 C-2.66 7 -3.32 7 -4 7 C-4.2475 7.61875 -4.495 8.2375 -4.75 8.875 C-6.22246063 11.37818306 -7.41028837 11.83045281 -10 13 C-10.33 13.66 -10.66 14.32 -11 15 C-11.99 14.67 -12.98 14.34 -14 14 C-9.33333333 9.33333333 -4.66666667 4.66666667 0 0 Z " fill="#6CCBE8" transform="translate(263,144)"/>
<path d="M0 0 C0 0.66 0 1.32 0 2 C-1.39278017 2.65239158 -2.78939212 3.29660552 -4.1875 3.9375 C-5.35345703 4.47697266 -5.35345703 4.47697266 -6.54296875 5.02734375 C-10.99742833 6.79071487 -15.04748987 7.11990976 -19.8125 7.0625 C-21.27623047 7.04896484 -21.27623047 7.04896484 -22.76953125 7.03515625 C-23.87361328 7.01775391 -23.87361328 7.01775391 -25 7 C-25 6.67 -25 6.34 -25 6 C-23.74896484 5.85304688 -23.74896484 5.85304688 -22.47265625 5.703125 C-16.06065021 4.85112878 -10.57124803 3.78589049 -4.8046875 0.8046875 C-3 0 -3 0 0 0 Z " fill="#BEE7F5" transform="translate(352,402)"/>
<path d="M0 0 C0.556875 0.28875 1.11375 0.5775 1.6875 0.875 C5.49257961 2.72611981 9.11846621 4.04479359 13.25 4.9375 C14.4875 5.288125 15.725 5.63875 17 6 C17.33 6.99 17.66 7.98 18 9 C11.82085856 8.60558672 7.07104639 6.57348687 2 3 C1.34 2.01 0.68 1.02 0 0 Z " fill="#B7E5F5" transform="translate(308,399)"/>
<path d="M0 0 C1.32 0.66 2.64 1.32 4 2 C3.87625 2.7425 3.7525 3.485 3.625 4.25 C3.71893347 7.34311033 3.71893347 7.34311033 7 9.3125 C7.99 9.869375 8.98 10.42625 10 11 C9.67 11.99 9.34 12.98 9 14 C7.8944811 13.06409496 6.79064547 12.12620142 5.6875 11.1875 C5.07261719 10.66542969 4.45773438 10.14335937 3.82421875 9.60546875 C3.22222656 9.07566406 2.62023437 8.54585938 2 8 C1.4225 7.4946875 0.845 6.989375 0.25 6.46875 C-0.1625 5.9840625 -0.575 5.499375 -1 5 C-0.6875 2.3125 -0.6875 2.3125 0 0 Z " fill="#0CADE8" transform="translate(227,313)"/>
<path d="M0 0 C1.32 0.66 2.64 1.32 4 2 C3.87625 2.7425 3.7525 3.485 3.625 4.25 C3.71893347 7.34311033 3.71893347 7.34311033 7 9.3125 C7.99 9.869375 8.98 10.42625 10 11 C9.67 11.99 9.34 12.98 9 14 C7.8944811 13.06409496 6.79064547 12.12620142 5.6875 11.1875 C5.07261719 10.66542969 4.45773438 10.14335937 3.82421875 9.60546875 C3.22222656 9.07566406 2.62023437 8.54585938 2 8 C1.4225 7.4946875 0.845 6.989375 0.25 6.46875 C-0.1625 5.9840625 -0.575 5.499375 -1 5 C-0.6875 2.3125 -0.6875 2.3125 0 0 Z " fill="#0CADE8" transform="translate(211,297)"/>
<path d="M0 0 C5.78461538 4.43076923 5.78461538 4.43076923 6.875 7.3125 C6.936875 8.1478125 6.936875 8.1478125 7 9 C5.02 9.99 5.02 9.99 3 11 C2.67 9.35 2.34 7.7 2 6 C1.01 5.67 0.02 5.34 -1 5 C-0.67 3.35 -0.34 1.7 0 0 Z " fill="#28566A" transform="translate(243,151)"/>
<path d="M0 0 C0.33 0.66 0.66 1.32 1 2 C-0.66666667 3.66666667 -2.33333333 5.33333333 -4 7 C-5.0828125 8.1446875 -5.0828125 8.1446875 -6.1875 9.3125 C-8 11 -8 11 -10 11 C-10 11.99 -10 12.98 -10 14 C-11.32 13.67 -12.64 13.34 -14 13 C-12.71034824 11.62437146 -11.37310707 10.29233607 -10 9 C-9.34 9 -8.68 9 -8 9 C-8 8.34 -8 7.68 -8 7 C-5.47107279 4.26602464 -3.10404867 2.06936578 0 0 Z " fill="#1696C4" transform="translate(179,229)"/>
<path d="M0 0 C4.32504836 1.65863505 7.09418825 4.871041 10.25 8.125 C11.08144531 8.96998047 11.08144531 8.96998047 11.9296875 9.83203125 C13.29104485 11.21686028 14.64614859 12.60783204 16 14 C15.01 14.33 14.02 14.66 13 15 C12.5978125 14.0409375 12.5978125 14.0409375 12.1875 13.0625 C11.11332248 10.66868314 11.11332248 10.66868314 8 10 C6.3125 8.5625 6.3125 8.5625 5 7 C5 6.34 5 5.68 5 5 C4.01 4.67 3.02 4.34 2 4 C2 3.34 2 2.68 2 2 C1.34 2 0.68 2 0 2 C0 1.34 0 0.68 0 0 Z " fill="#14576E" transform="translate(112,204)"/>
<path d="M0 0 C3.45201639 1.47721422 5.64961936 3.43794001 8.25 6.125 C8.95640625 6.84945312 9.6628125 7.57390625 10.390625 8.3203125 C11.18726563 9.15175781 11.18726563 9.15175781 12 10 C11.34 10.66 10.68 11.32 10 12 C10 11.34 10 10.68 10 10 C9.195625 9.71125 8.39125 9.4225 7.5625 9.125 C5 8 5 8 4 6 C3.01 5.67 2.02 5.34 1 5 C0.67 3.35 0.34 1.7 0 0 Z " fill="#64C6EB" transform="translate(384,128)"/>
<path d="M0 0 C0.33 0.99 0.66 1.98 1 3 C-2.66666667 6.66666667 -6.33333333 10.33333333 -10 14 C-10.99 13.67 -11.98 13.34 -13 13 C-8.71 8.71 -4.42 4.42 0 0 Z " fill="#1483AB" transform="translate(106,301)"/>
<path d="M0 0 C0.33 0 0.66 0 1 0 C2.81774185 7.09784913 4.43230491 13.65081658 4 21 C-0.33215338 14.50176993 -0.27863374 7.55407017 0 0 Z " fill="#52869A" transform="translate(8,245)"/>
<path d="M0 0 C0 3.53922552 -0.70481438 4.31891897 -2.8125 7.0625 C-3.33457031 7.75472656 -3.85664063 8.44695312 -4.39453125 9.16015625 C-6 11 -6 11 -9 13 C-9.99 12.67 -10.98 12.34 -12 12 C-8.04 8.04 -4.08 4.08 0 0 Z " fill="#78D1EC" transform="translate(303,104)"/>
<path d="M0 0 C2.56430654 1.09898852 4.06386605 2.06785768 6 4.125 C8.02944747 6.45596075 8.02944747 6.45596075 12 6 C12 8.33333333 12 10.66666667 12 13 C11.319375 12.29875 10.63875 11.5975 9.9375 10.875 C7.23957261 8.15381461 4.33406548 5.73904225 1.35546875 3.33203125 C0.90816406 2.89246094 0.46085937 2.45289063 0 2 C0 1.34 0 0.68 0 0 Z " fill="#32C4FA" transform="translate(264,172)"/>
<path d="M0 0 C0.99 0.33 1.98 0.66 3 1 C1.64458676 5.06623972 -0.57009469 6.53046818 -4 9 C-4.99 8.67 -5.98 8.34 -7 8 C-6.02133662 6.85373678 -5.04205413 5.70800212 -4.0625 4.5625 C-3.51722656 3.92441406 -2.97195313 3.28632813 -2.41015625 2.62890625 C-1.63204305 1.73008851 -0.84063472 0.84063472 0 0 Z " fill="#81DEFB" transform="translate(315,275)"/>
<path d="M0 0 C4.52615993 3.67832017 8.39424999 7.41086363 12 12 C11.01 12.495 11.01 12.495 10 13 C9.34 12.01 8.68 11.02 8 10 C7.38125 9.9175 6.7625 9.835 6.125 9.75 C2.49728756 8.4696309 1.64874295 5.35636958 0 2 C0 1.34 0 0.68 0 0 Z " fill="#8ED7F1" transform="translate(430,173)"/>
<path d="M0 0 C1.98 0.99 1.98 0.99 4 2 C4 2.99 4 3.98 4 5 C4.99 5.33 5.98 5.66 7 6 C7 6.99 7 7.98 7 9 C7.99 9.33 8.98 9.66 10 10 C9.34 10.66 8.68 11.32 8 12 C1.29540481 5.92560175 1.29540481 5.92560175 0.0625 2.0625 C0.041875 1.381875 0.02125 0.70125 0 0 Z " fill="#35768C" transform="translate(66,320)"/>
<path d="M0 0 C1.32 0.66 2.64 1.32 4 2 C2.02 4.31 0.04 6.62 -2 9 C-2.33 8.34 -2.66 7.68 -3 7 C-3.66 6.67 -4.32 6.34 -5 6 C-4.01 5.34 -3.02 4.68 -2 4 C-0.80767387 1.94996045 -0.80767387 1.94996045 0 0 Z " fill="#85D4F5" transform="translate(440,311)"/>
<path d="M0 0 C1.32 0.66 2.64 1.32 4 2 C2.02 4.31 0.04 6.62 -2 9 C-2.33 8.34 -2.66 7.68 -3 7 C-3.66 6.67 -4.32 6.34 -5 6 C-4.01 5.34 -3.02 4.68 -2 4 C-0.80767387 1.94996045 -0.80767387 1.94996045 0 0 Z " fill="#85D4F5" transform="translate(456,295)"/>
<path d="M0 0 C1.32 0 2.64 0 4 0 C4 0.66 4 1.32 4 2 C4.99 2.33 5.98 2.66 7 3 C7.33 3.66 7.66 4.32 8 5 C8.99 5.66 9.98 6.32 11 7 C10.01 8.485 10.01 8.485 9 10 C7.49702124 8.52386015 5.99768715 7.04400843 4.5 5.5625 C3.6646875 4.73878906 2.829375 3.91507812 1.96875 3.06640625 C0 1 0 1 0 0 Z " fill="#C8E9F5" transform="translate(281,373)"/>
<path d="M0 0 C0.66 0 1.32 0 2 0 C1 3 1 3 -1.25 5.1875 C-4.47990027 8.49080709 -6.68432024 12.02885557 -9 16 C-9.66 15.34 -10.32 14.68 -11 14 C-10.46375 13.34 -9.9275 12.68 -9.375 12 C-6.94647532 8.93238988 -4.60168957 5.81290849 -2.26953125 2.671875 C-1 1 -1 1 0 0 Z " fill="#109ED2" transform="translate(232,175)"/>
<path d="M0 0 C1.12894876 0.93274109 2.25300876 1.87140122 3.375 2.8125 C4.00148438 3.33457031 4.62796875 3.85664063 5.2734375 4.39453125 C7 6 7 6 9 9 C5.60406522 9 4.93380119 8.47834052 2.3125 6.5 C1.68988281 6.0359375 1.06726563 5.571875 0.42578125 5.09375 C-0.04472656 4.7328125 -0.51523437 4.371875 -1 4 C-0.67 2.68 -0.34 1.36 0 0 Z " fill="#63C7EC" transform="translate(401,144)"/>
<path d="M0 0 C1.33333333 0.66666667 2.66666667 1.33333333 4 2 C5.0828125 2.495 5.0828125 2.495 6.1875 3 C8 4 8 4 9 6 C9.99 6.66 10.98 7.32 12 8 C11.01 9.485 11.01 9.485 10 11 C8.33035479 9.35718838 6.6643536 7.71067239 5 6.0625 C4.071875 5.14597656 3.14375 4.22945313 2.1875 3.28515625 C0 1 0 1 0 0 Z " fill="#CCEBF6" transform="translate(264,356)"/>
<path d="M0 0 C0.99 0 1.98 0 3 0 C1.79618552 2.49361571 0.54571278 4.68143083 -1 7 C-4.125 7.6875 -4.125 7.6875 -7 8 C-6.02133662 6.85373678 -5.04205413 5.70800212 -4.0625 4.5625 C-3.51722656 3.92441406 -2.97195312 3.28632813 -2.41015625 2.62890625 C-1.63204305 1.73008851 -0.84063472 0.84063472 0 0 Z " fill="#2E6C81" transform="translate(53,189)"/>
<path d="M0 0 C0.33 0.99 0.66 1.98 1 3 C-2.83314543 8.63697858 -2.83314543 8.63697858 -6.8125 9.875 C-7.8953125 9.936875 -7.8953125 9.936875 -9 10 C-8.06409496 8.8944811 -7.12620142 7.79064547 -6.1875 6.6875 C-5.66542969 6.07261719 -5.14335938 5.45773438 -4.60546875 4.82421875 C-3.12827531 3.14575321 -1.59960869 1.56117966 0 0 Z " fill="#36545D" transform="translate(93,149)"/>
<path d="M0 0 C-1.39332574 3.36720387 -2.9789286 4.9859524 -6 7 C-7.125 2.25 -7.125 2.25 -6 0 C-3 -1 -3 -1 0 0 Z " fill="#84D5EE" transform="translate(432,324)"/>
<path d="M0 0 C2.31 0.66 4.62 1.32 7 2 C7.33 4.31 7.66 6.62 8 9 C6.84775972 8.07038578 5.70340824 7.1309875 4.5625 6.1875 C3.60537109 5.40439453 3.60537109 5.40439453 2.62890625 4.60546875 C1 3 1 3 0 0 Z " fill="#418093" transform="translate(15,271)"/>
<path d="M0 0 C-0.3125 1.9375 -0.3125 1.9375 -1 4 C-1.99 4.33 -2.98 4.66 -4 5 C-4.33 5.99 -4.66 6.98 -5 8 C-6.32 7.67 -7.64 7.34 -9 7 C-7.88121617 5.82737096 -6.75476949 4.66204862 -5.625 3.5 C-4.68527344 2.52546875 -4.68527344 2.52546875 -3.7265625 1.53125 C-2 0 -2 0 0 0 Z " fill="#1496C6" transform="translate(247,162)"/>
<path d="M0 0 C0.66 0 1.32 0 2 0 C1.67 1.32 1.34 2.64 1 4 C1.99 4.33 2.98 4.66 4 5 C1.03 7.475 1.03 7.475 -2 10 C-2.33 9.01 -2.66 8.02 -3 7 C-2.01 7 -1.02 7 0 7 C0 6.01 0 5.02 0 4 C-0.66 4 -1.32 4 -2 4 C-1.34 2.68 -0.68 1.36 0 0 Z " fill="#1888AD" transform="translate(197,386)"/>
<path d="M0 0 C0.33 1.32 0.66 2.64 1 4 C-0.9375 6.75 -0.9375 6.75 -3 9 C-4.32 8.34 -5.64 7.68 -7 7 C-4.69 4.69 -2.38 2.38 0 0 Z " fill="#33525B" transform="translate(120,122)"/>
<path d="M0 0 C3.59905908 0.55550695 4.99909799 1.74887248 7.25 4.5625 C8.03117187 5.52349609 8.03117187 5.52349609 8.828125 6.50390625 C9.21484375 6.99761719 9.6015625 7.49132812 10 8 C8.35 7.67 6.7 7.34 5 7 C4.67 6.01 4.34 5.02 4 4 C1.98491642 3.26676204 1.98491642 3.26676204 0 3 C0 2.01 0 1.02 0 0 Z " fill="#66C9EA" transform="translate(363,108)"/>
<path d="M0 0 C1.65 0 3.3 0 5 0 C5.33 0.99 5.66 1.98 6 3 C6.66 3.33 7.32 3.66 8 4 C8 4.66 8 5.32 8 6 C8.66 6 9.32 6 10 6 C9.67 6.66 9.34 7.32 9 8 C7.49712782 6.85793642 5.99776716 5.71125043 4.5 4.5625 C3.6646875 3.92441406 2.829375 3.28632813 1.96875 2.62890625 C1.3190625 2.09136719 0.669375 1.55382812 0 1 C0 0.67 0 0.34 0 0 Z " fill="#4FA3C1" transform="translate(139,396)"/>
<path d="M0 0 C1.32 0 2.64 0 4 0 C4 0.66 4 1.32 4 2 C4.99 2.33 5.98 2.66 7 3 C7.33 4.65 7.66 6.3 8 8 C6.85073734 7.04578192 5.70569459 6.08647955 4.5625 5.125 C3.92441406 4.59132813 3.28632813 4.05765625 2.62890625 3.5078125 C1 2 1 2 0 0 Z " fill="#C9E9F5" transform="translate(297,389)"/>
<path d="M0 0 C0 3.63053243 -1.2278255 4.95750337 -3.5546875 7.63671875 C-5.49136818 9.46347972 -7.46012234 10.27432067 -10 11 C-6.79239749 7.19364503 -3.59253891 3.45436433 0 0 Z " fill="#1BA4D8" transform="translate(190,218)"/>
<path d="M0 0 C0 3.16880694 -0.2058242 4.43689172 -2 7 C-4.625 7.75 -4.625 7.75 -7 8 C-6.02133662 6.85373678 -5.04205413 5.70800212 -4.0625 4.5625 C-3.51722656 3.92441406 -2.97195312 3.28632813 -2.41015625 2.62890625 C-1.63204305 1.73008851 -0.84063472 0.84063472 0 0 Z " fill="#3A758C" transform="translate(24,218)"/>
<path d="M0 0 C-3.465 2.97 -3.465 2.97 -7 6 C-6.625 3.0625 -6.625 3.0625 -6 0 C-4 -1 -4 -1 0 0 Z " fill="#044258" transform="translate(223,186)"/>
<path d="M0 0 C2.02054804 1.64169528 4.02043058 3.30911778 6 5 C6 5.33 6 5.66 6 6 C3.69 6.33 1.38 6.66 -1 7 C-1 4.37886292 -0.68707555 2.49064888 0 0 Z " fill="#3E5D66" transform="translate(235,143)"/>
<path d="M0 0 C0.33 1.32 0.66 2.64 1 4 C-1.3125 6.0625 -1.3125 6.0625 -4 8 C-4.99 7.67 -5.98 7.34 -7 7 C-4.69 4.69 -2.38 2.38 0 0 Z " fill="#3C5A63" transform="translate(128,114)"/>
<path d="M0 0 C0.625 1.8125 0.625 1.8125 1 4 C0.01 5.485 0.01 5.485 -1 7 C-2.65 5.02 -4.3 3.04 -6 1 C-4.7934375 1.0309375 -4.7934375 1.0309375 -3.5625 1.0625 C-1.06645115 1.29633621 -1.06645115 1.29633621 0 0 Z " fill="#3D9CC2" transform="translate(119,369)"/>
<path d="M0 0 C1.98 0.66 3.96 1.32 6 2 C6 2.99 6 3.98 6 5 C6.99 5.33 7.98 5.66 9 6 C8.34 6.66 7.68 7.32 7 8 C5.83035398 6.8572081 4.66435444 5.71068285 3.5 4.5625 C2.8503125 3.92441406 2.200625 3.28632813 1.53125 2.62890625 C0 1 0 1 0 0 Z " fill="#4FA5C5" transform="translate(87,344)"/>
<path d="M0 0 C0.99 0.33 1.98 0.66 3 1 C1.79618552 3.49361571 0.54571278 5.68143083 -1 8 C-1.99 6.68 -2.98 5.36 -4 4 C-3.34 4 -2.68 4 -2 4 C-1.34 2.68 -0.68 1.36 0 0 Z " fill="#2F92B4" transform="translate(79,328)"/>
<path d="M0 0 C0.66 0.33 1.32 0.66 2 1 C1.5359375 2.1446875 1.5359375 2.1446875 1.0625 3.3125 C0.32106407 5.18789677 -0.36228217 7.08684652 -1 9 C-1.99 8.01 -2.98 7.02 -4 6 C-1.125 1.125 -1.125 1.125 0 0 Z " fill="#159FD1" transform="translate(163,244)"/>
<path d="M0 0 C0.6875 1.8125 0.6875 1.8125 1 4 C-0.25 5.75 -0.25 5.75 -2 7 C-2.99 7 -3.98 7 -5 7 C-3.70700306 4.11562221 -2.34058637 2.12780579 0 0 Z " fill="#2B4A56" transform="translate(83,159)"/>
<path d="M0 0 C0.33 0.66 0.66 1.32 1 2 C-0.98 4.97 -0.98 4.97 -3 8 C-4.32 7.67 -5.64 7.34 -7 7 C-4.69 4.69 -2.38 2.38 0 0 Z " fill="#3C5962" transform="translate(112,130)"/>
<path d="M0 0 C-0.375 1.9375 -0.375 1.9375 -1 4 C-1.99 4.495 -1.99 4.495 -3 5 C-3 4.01 -3 3.02 -3 2 C-3.99 2 -4.98 2 -6 2 C-6 1.34 -6 0.68 -6 0 C-3.50907189 -1.24546405 -2.58919267 -0.7767578 0 0 Z " fill="#1386B2" transform="translate(249,340)"/>
<path d="M0 0 C0.33 0.66 0.66 1.32 1 2 C-1.65654657 5.73884332 -3.58110387 7.64978174 -8 9 C-7.04270084 7.87411986 -6.08412105 6.7493285 -5.125 5.625 C-4.59132813 4.99851562 -4.05765625 4.37203125 -3.5078125 3.7265625 C-2.38567993 2.44163349 -1.20628025 1.20628025 0 0 Z " fill="#74DBFA" transform="translate(334,256)"/>
<path d="M0 0 C0.28875 0.598125 0.5775 1.19625 0.875 1.8125 C2.04742026 4.19327792 2.04742026 4.19327792 4 7 C1.03 6.67 -1.94 6.34 -5 6 C-3.35 4.02 -1.7 2.04 0 0 Z " fill="#336D7D" transform="translate(77,165)"/>
<path d="M0 0 C1.98 1.65 3.96 3.3 6 5 C4.02 5.99 4.02 5.99 2 7 C0 5 0 5 -0.125 2.375 C-0.08375 1.59125 -0.0425 0.8075 0 0 Z " fill="#4A686E" transform="translate(203,111)"/>
<path d="M0 0 C2.31 0 4.62 0 7 0 C6.67 1.98 6.34 3.96 6 6 C3.97945196 4.35830472 1.97956942 2.69088222 0 1 C0 0.67 0 0.34 0 0 Z " fill="#43A0C4" transform="translate(129,386)"/>
<path d="M0 0 C1.2065625 0.0309375 1.2065625 0.0309375 2.4375 0.0625 C0.79580472 2.08304804 -0.87161778 4.08293058 -2.5625 6.0625 C-2.8925 6.0625 -3.2225 6.0625 -3.5625 6.0625 C-3.605221 4.39638095 -3.60313832 2.72867115 -3.5625 1.0625 C-2.5625 0.0625 -2.5625 0.0625 0 0 Z " fill="#91D8F2" transform="translate(447.5625,306.9375)"/>
<path d="M0 0 C1.2065625 0.0309375 1.2065625 0.0309375 2.4375 0.0625 C0.79580472 2.08304804 -0.87161778 4.08293058 -2.5625 6.0625 C-2.8925 6.0625 -3.2225 6.0625 -3.5625 6.0625 C-3.605221 4.39638095 -3.60313832 2.72867115 -3.5625 1.0625 C-2.5625 0.0625 -2.5625 0.0625 0 0 Z " fill="#91D8F2" transform="translate(463.5625,290.9375)"/>
<path d="M0 0 C1.875 0.3125 1.875 0.3125 4 1 C4.66 1.99 5.32 2.98 6 4 C6.99 4.33 7.98 4.66 9 5 C8.67 5.99 8.34 6.98 8 8 C6.85073734 7.04578192 5.70569459 6.08647955 4.5625 5.125 C3.92441406 4.59132813 3.28632813 4.05765625 2.62890625 3.5078125 C1 2 1 2 0 0 Z " fill="#15AEE8" transform="translate(162,253)"/>
<path d="M0 0 C0.66 0 1.32 0 2 0 C0.4169423 4.2742558 -2.50568404 6.26531794 -6 9 C-6 6 -6 6 -3.5625 3.375 C-2.716875 2.59125 -1.87125 1.8075 -1 1 C-0.67 0.67 -0.34 0.34 0 0 Z " fill="#3ABBE9" transform="translate(359,228)"/>
<path d="M0 0 C0.66 0.33 1.32 0.66 2 1 C-0.31 3.31 -2.62 5.62 -5 8 C-5.33 7.01 -5.66 6.02 -6 5 C-4.02 3.35 -2.04 1.7 0 0 Z " fill="#3BBCEA" transform="translate(412,176)"/>
<path d="M0 0 C1.98 0 3.96 0 6 0 C6 1.98 6 3.96 6 6 C3.97945196 4.35830472 1.97956942 2.69088222 0 1 C0 0.67 0 0.34 0 0 Z " fill="#43A0C2" transform="translate(79,336)"/>
<path d="M0 0 C1.98 1.65 3.96 3.3 6 5 C4.02 5.99 4.02 5.99 2 7 C1.34 4.69 0.68 2.38 0 0 Z " fill="#65CAEC" transform="translate(377,120)"/>
<path d="M0 0 C-2.97 2.475 -2.97 2.475 -6 5 C-6 3.35 -6 1.7 -6 0 C-3 -1 -3 -1 0 0 Z " fill="#97DAF1" transform="translate(483,275)"/>
<path d="M0 0 C-1.39332574 3.36720387 -2.9789286 4.9859524 -6 7 C-6 5.68 -6 4.36 -6 3 C-2.78571429 0 -2.78571429 0 0 0 Z " fill="#034459" transform="translate(206,201)"/>
<path d="M0 0 C0.33 0.66 0.66 1.32 1 2 C-0.65 3.65 -2.3 5.3 -4 7 C-4.33 6.01 -4.66 5.02 -5 4 C-3.35 2.68 -1.7 1.36 0 0 Z " fill="#179CCC" transform="translate(211,197)"/>
<path d="M0 0 C2.31 1.98 4.62 3.96 7 6 C6.34 6.66 5.68 7.32 5 8 C0 2.25 0 2.25 0 0 Z " fill="#93D6F2" transform="translate(423,166)"/>
<path d="M0 0 C1.98 1.65 3.96 3.3 6 5 C2.25 6.125 2.25 6.125 0 5 C0 3.35 0 1.7 0 0 Z " fill="#526C75" transform="translate(219,127)"/>
<path d="M0 0 C1.98 1.65 3.96 3.3 6 5 C2.25 6.125 2.25 6.125 0 5 C0 3.35 0 1.7 0 0 Z " fill="#526F78" transform="translate(211,119)"/>
<path d="M0 0 C0.66 0.33 1.32 0.66 2 1 C0.875 2.9375 0.875 2.9375 -1 5 C-4.1875 5.75 -4.1875 5.75 -7 6 C-4.74259377 3.66475218 -2.7194239 1.81294927 0 0 Z " fill="#79CEEA" transform="translate(314,95)"/>
<path d="M0 0 C1.32 0 2.64 0 4 0 C4 0.66 4 1.32 4 2 C4.66 2 5.32 2 6 2 C5.67 3.32 5.34 4.64 5 6 C3.35 4.02 1.7 2.04 0 0 Z " fill="#4DA5C6" transform="translate(104,361)"/>
<path d="M0 0 C0.33 0.66 0.66 1.32 1 2 C-1.3125 4.5 -1.3125 4.5 -4 7 C-4.99 7 -5.98 7 -7 7 C-4.69 4.69 -2.38 2.38 0 0 Z " fill="#1684AD" transform="translate(92,315)"/>
<path d="M0 0 C0.66 0.33 1.32 0.66 2 1 C1.34 3.31 0.68 5.62 0 8 C-1.125 6.25 -1.125 6.25 -2 4 C-1.125 1.75 -1.125 1.75 0 0 Z " fill="#77D0F3" transform="translate(476,274)"/>
<path d="M0 0 C0.66 0 1.32 0 2 0 C1.46930939 3.82097239 0.50298434 6.06171403 -2 9 C-1.125 1.125 -1.125 1.125 0 0 Z " fill="#9CD8ED" transform="translate(488,260)"/>
<path d="M0 0 C1.32 0.33 2.64 0.66 4 1 C1.03 3.475 1.03 3.475 -2 6 C-2 4.68 -2 3.36 -2 2 C-1.34 2 -0.68 2 0 2 C0 1.34 0 0.68 0 0 Z " fill="#0EA9E4" transform="translate(334,252)"/>
<path d="M0 0 C3.36720387 1.39332574 4.9859524 2.9789286 7 6 C6.67 6.66 6.34 7.32 6 8 C1.3125 4.38671875 1.3125 4.38671875 0 3 C0 2.01 0 1.02 0 0 Z " fill="#30C5FB" transform="translate(306,213)"/>
</svg>
